<?xml version="1.0" encoding="iso-8859-1"?>
<!-- Uploaded to: SVG Repo, www.svgrepo.com, Generator: SVG Repo Mixer Tools -->
<!DOCTYPE svg PUBLIC "-//W3C//DTD SVG 1.1//EN" "http://www.w3.org/Graphics/SVG/1.1/DTD/svg11.dtd">
<svg height="800px" width="800px" version="1.1" id="Capa_1" xmlns="http://www.w3.org/2000/svg" xmlns:xlink="http://www.w3.org/1999/xlink" 
	 viewBox="0 0 466.961 466.961" xml:space="preserve">
<g>
	<path style="fill:#FFFFFF;" d="M89.409,367.121c0.52,1.06,0.59,2.25,0.21,3.37l-3.24,9.37l-8.39-2.7l3.3-9.55
		c0.62-1.82,2.34-2.97,4.17-2.97c0.47,0,0.95,0.08,1.43,0.24C87.999,365.261,88.899,366.061,89.409,367.121z"/>
	<path style="fill:#FFFFFF;" d="M83.769,387.421l-2.78,8.05c-0.38,1.11-1.18,2.01-2.23,2.53c-1.06,0.51-2.26,0.58-3.37,0.2
		s-2.01-1.18-2.53-2.24c-0.51-1.06-0.58-2.25-0.2-3.36l2.72-7.87L83.769,387.421z"/>
	<path style="fill:#FFFFFF;" d="M102.859,370.791c2.3,0.78,3.54,3.29,2.75,5.59l-2.96,8.7l-8.39-2.69l3.01-8.85
		c0.62-1.83,2.34-2.99,4.18-2.99C101.919,370.551,102.389,370.631,102.859,370.791z"/>
	<path style="fill:#FFFFFF;" d="M100.079,392.661l-2.98,8.75c-0.78,2.3-3.29,3.53-5.59,2.75c-2.3-0.78-3.54-3.29-2.76-5.59
		l2.93-8.61L100.079,392.661z"/>
	<path style="fill:#FFFFFF;" d="M121.229,378.451c0.57,1.03,0.7,2.22,0.37,3.35l-2.51,8.56l-8.39-2.69l2.44-8.34
		c0.33-1.13,1.08-2.07,2.11-2.63c0.66-0.36,1.38-0.55,2.11-0.55c0.42,0,0.83,0.06,1.24,0.18
		C119.729,376.661,120.669,377.411,121.229,378.451z"/>
	<path style="fill:#FFFFFF;" d="M116.849,398.051l-2.67,9.12c-0.68,2.33-3.13,3.68-5.46,2.99c-2.34-0.68-3.68-3.13-3-5.46l2.73-9.35
		L116.849,398.051z"/>
	<path style="fill:#FFFFFF;" d="M135.979,381.831c2.36,0.56,3.83,2.93,3.28,5.3l-1.98,8.43c-2.89-0.55-5.74-1.26-8.56-2.12
		l1.96-8.33c0.48-2.03,2.29-3.4,4.29-3.4C135.299,381.711,135.639,381.751,135.979,381.831z"/>
	<path style="fill:#FFFFFF;" d="M135.439,403.361l-2.23,9.5c-0.56,2.37-2.93,3.84-5.3,3.28c-2.36-0.55-3.84-2.93-3.28-5.3l2.26-9.61
		C129.709,402.081,132.559,402.801,135.439,403.361z"/>
	<path style="fill:#FFFFFF;" d="M155.079,404.991l-1.85,7.87c-0.27,1.15-0.97,2.12-1.97,2.74c-1.01,0.62-2.19,0.81-3.33,0.54
		c-1.15-0.27-2.12-0.97-2.74-1.97c-0.62-1-0.81-2.18-0.54-3.33l1.42-6.07c2.2,0.17,4.41,0.25,6.61,0.25
		C153.479,405.021,154.279,405.011,155.079,404.991z"/>
	<path style="fill:#FFFFFF;" d="M155.989,381.831c2.37,0.56,3.84,2.93,3.28,5.3l-2.29,9.77c-3.02,0.16-6.04,0.16-9.05-0.02
		l2.76-11.77c0.48-2.02,2.3-3.4,4.29-3.4C155.319,381.711,155.659,381.751,155.989,381.831z"/>
	<path style="fill:#FFFFFF;" d="M360.469,358.791c0,29.7-9.43,57.89-27.26,81.52c-8.39,11.12-21.56,17.77-35.21,17.79h-0.23
		c-36.56,0-70.66-14.26-96.29-40.19c1.92-5.81,3.09-11.84,3.5-17.98c9.68-0.67,18.34-6.08,23.27-14.6c5.19-8.98,5.46-19.82,0.72-29
		c-6.91-13.38-6.69-29.24,0.61-42.43c1.07-1.93,0.37-4.36-1.56-5.43c-1.94-1.07-4.37-0.37-5.44,1.56
		c-8.59,15.53-8.86,34.21-0.72,49.97c3.49,6.75,3.29,14.72-0.54,21.32c-3.73,6.45-10.07,10.34-17.39,10.67
		c-0.37,0.02-0.73,0.02-1.1,0.02c-13.11,0-23.78-10.67-23.78-23.78c0-2.21-1.79-4-4-4c-2.21,0-4,1.79-4,4
		c0,15.53,11.2,28.49,25.94,31.24c-0.42,6.21-1.7,12.27-3.85,18.07c0,0.01-2.53,6.14-4.13,9.02c-13.5,24.4-42.34,37.07-70.13,30.82
		l-39.21-8.83c-6.44-1.45-11.95-5.6-15.11-11.4c-3.16-5.8-3.66-12.69-1.41-18.81l0.25-0.69c0.03-0.07,0.06-0.14,0.08-0.22
		l4.74-14.48c1.28,1.25,2.82,2.21,4.56,2.81c1.33,0.46,2.69,0.69,4.06,0.69c1.68,0,3.35-0.37,4.93-1.06c1.4,2.88,3.9,5.23,7.16,6.34
		c1.32,0.45,2.66,0.66,3.99,0.66c2.01,0,3.97-0.5,5.72-1.4c1.43,3.21,4.2,5.79,7.83,6.85c1.16,0.34,2.33,0.5,3.48,0.5
		c2.64,0,5.18-0.85,7.27-2.36c0.3,0.83,0.68,1.64,1.15,2.41c1.75,2.81,4.48,4.78,7.71,5.54c0.95,0.22,1.9,0.33,2.84,0.33
		c3.98,0,7.7-1.94,10.01-5.09c1.74,2.39,4.25,4.08,7.17,4.76c0.95,0.22,1.91,0.33,2.86,0.33c2.28,0,4.52-0.63,6.51-1.86
		c2.82-1.74,4.78-4.48,5.54-7.71l2.43-10.32c2.41-0.29,4.82-0.67,7.21-1.16c2.17-0.44,3.56-2.56,3.12-4.72
		c-0.44-2.17-2.56-3.56-4.72-3.12c-1.21,0.25-2.43,0.46-3.65,0.65l1.66-7.06c1.57-6.66-2.58-13.35-9.24-14.92
		c-4.99-1.17-10,0.86-12.85,4.76c-1.69-2.31-4.17-4.05-7.16-4.76c-3.24-0.76-6.49-0.16-9.15,1.42c-1.44-3.19-4.2-5.75-7.81-6.81
		c-2.83-0.82-5.78-0.62-8.44,0.54c-1.43-2.71-3.85-4.91-6.97-5.97c-3.01-1.03-6.14-0.81-8.86,0.35c-1.45-2.96-3.97-5.18-7.08-6.25
		c-1.32-0.46-2.67-0.67-4-0.67c-1.35,0-2.68,0.22-3.94,0.64c-0.27-2.71-1.16-5.36-2.67-7.72c-0.01-0.02-0.03-0.06-0.04-0.07
		c-5.34-8.43,0.67-29.15,4.18-38.51c2.37-0.68,6.23-1.9,8.56-3.29c6.44-3.81,11.93-9.44,15.87-16.29
		c20.34-35.43,55.02-59.57,95.14-66.25c0.04,0,0.08-0.01,0.12-0.01c7.3-1.22,14.8-1.83,22.29-1.83c11.88,0,23.61,1.54,34.97,4.57
		c-1.29,3-2.57,6.04-3.85,9.16c-8.15-2.2-16.84-0.45-25.23,5.13c-6.45,4.29-10.49,9.36-10.66,9.58c-1.09,1.38-1.15,3.31-0.14,4.76
		c1.01,1.45,2.84,2.07,4.52,1.52c7.58-2.46,15.66-1.82,22.76,1.81c7.1,3.62,12.37,9.79,14.83,17.37
		c3.11,9.62,9.79,17.44,18.79,22.04c5.41,2.75,11.26,4.15,17.16,4.15c3.93,0,7.87-0.62,11.72-1.87c1.65-0.53,2.77-2.08,2.76-3.82
		c-0.01-1.74-1.14-3.28-2.8-3.8c-0.17-0.05-15.73-5.05-21.39-16.54c6.3-9.73,11.97-18.8,17.18-27.47
		C340.049,275.441,360.469,315.831,360.469,358.791z M179.749,345.991c7.24-7.7,10.43-22.04,7.28-32.64
		c-2.23-7.51-7.36-12.59-14.44-14.32c-5.03-1.22-9.54-2.68-13.52-3.98c-11.76-3.81-21.92-7.11-30.91,2.47
		c-11.26,11.99-8.86,32.62,5.37,45.98c6.78,6.37,15.25,10.2,23.84,10.76c0.73,0.05,1.47,0.07,2.19,0.07
		C167.549,354.331,174.659,351.411,179.749,345.991z M104.949,348.431c1.17-1.04,1.62-2.66,1.16-4.16l-7.5-24.44
		c-0.5-1.65-2.01-2.79-3.73-2.83c-1.75-0.03-3.28,1.03-3.86,2.65l-6.56,18.34c-0.71,1.98,0.24,4.17,2.17,5.01l14.06,6.12
		c0.52,0.22,1.06,0.33,1.6,0.33C103.249,349.451,104.209,349.101,104.949,348.431z"/>
	<linearGradient id="SVGID_1_" gradientUnits="userSpaceOnUse" x1="360.4688" y1="341.1421" x2="61.762" y2="341.1421">
		<stop  offset="0" style="stop-color:#333333"/>
		<stop  offset="0.0046" style="stop-color:#333536;stop-opacity:0.9954"/>
		<stop  offset="0.0753" style="stop-color:#31515E;stop-opacity:0.9249"/>
		<stop  offset="0.1509" style="stop-color:#2F6981;stop-opacity:0.8497"/>
		<stop  offset="0.234" style="stop-color:#2D7D9F;stop-opacity:0.7668"/>
		<stop  offset="0.325" style="stop-color:#2B8EB8;stop-opacity:0.6761"/>
		<stop  offset="0.4271" style="stop-color:#2A9BCB;stop-opacity:0.5744"/>
		<stop  offset="0.5464" style="stop-color:#2AA4D8;stop-opacity:0.4555"/>
		<stop  offset="0.699" style="stop-color:#29A9E0;stop-opacity:0.3034"/>
		<stop  offset="1" style="stop-color:#29ABE2;stop-opacity:0.0034"/>
	</linearGradient>
	<path style="fill:url(#SVGID_1_);" d="M305.629,249.911c-5.21,8.67-10.88,17.74-17.18,27.47c5.66,11.49,21.22,16.49,21.39,16.54
		c1.66,0.52,2.79,2.06,2.8,3.8s-1.11,3.29-2.76,3.82c-3.85,1.25-7.79,1.87-11.72,1.87c-5.9,0-11.75-1.4-17.16-4.15
		c-9-4.6-15.68-12.42-18.79-22.04c-2.46-7.58-7.73-13.75-14.83-17.37c-7.1-3.63-15.18-4.27-22.76-1.81
		c-1.68,0.55-3.51-0.07-4.52-1.52s-0.95-3.38,0.14-4.76c0.17-0.22,4.21-5.29,10.66-9.58c8.39-5.58,17.08-7.33,25.23-5.13
		c1.28-3.12,2.56-6.16,3.85-9.16c-11.36-3.03-23.09-4.57-34.97-4.57c-7.49,0-14.99,0.61-22.29,1.83c-0.04,0-0.08,0.01-0.12,0.01
		c-40.12,6.68-74.8,30.82-95.14,66.25c-3.94,6.85-9.43,12.48-15.87,16.29c-2.33,1.39-6.19,2.61-8.56,3.29
		c-3.51,9.36-9.52,30.08-4.18,38.51c0.01,0.01,0.03,0.05,0.04,0.07c1.51,2.36,2.4,5.01,2.67,7.72c1.26-0.42,2.59-0.64,3.94-0.64
		c1.33,0,2.68,0.21,4,0.67c3.11,1.07,5.63,3.29,7.08,6.25c2.72-1.16,5.85-1.38,8.86-0.35c3.12,1.06,5.54,3.26,6.97,5.97
		c2.66-1.16,5.61-1.36,8.44-0.54c3.61,1.06,6.37,3.62,7.81,6.81c2.66-1.58,5.91-2.18,9.15-1.42c2.99,0.71,5.47,2.45,7.16,4.76
		c2.85-3.9,7.86-5.93,12.85-4.76c6.66,1.57,10.81,8.26,9.24,14.92l-1.66,7.06c1.22-0.19,2.44-0.4,3.65-0.65
		c2.16-0.44,4.28,0.95,4.72,3.12c0.44,2.16-0.95,4.28-3.12,4.72c-2.39,0.49-4.8,0.87-7.21,1.16l-2.43,10.32
		c-0.76,3.23-2.72,5.97-5.54,7.71c-1.99,1.23-4.23,1.86-6.51,1.86c-0.95,0-1.91-0.11-2.86-0.33c-2.92-0.68-5.43-2.37-7.17-4.76
		c-2.31,3.15-6.03,5.09-10.01,5.09c-0.94,0-1.89-0.11-2.84-0.33c-3.23-0.76-5.96-2.73-7.71-5.54c-0.47-0.77-0.85-1.58-1.15-2.41
		c-2.09,1.51-4.63,2.36-7.27,2.36c-1.15,0-2.32-0.16-3.48-0.5c-3.63-1.06-6.4-3.64-7.83-6.85c-1.75,0.9-3.71,1.4-5.72,1.4
		c-1.33,0-2.67-0.21-3.99-0.66c-3.26-1.11-5.76-3.46-7.16-6.34c-1.58,0.69-3.25,1.06-4.93,1.06c-1.37,0-2.73-0.23-4.06-0.69
		c-1.74-0.6-3.28-1.56-4.56-2.81l-4.74,14.48c-0.02,0.08-0.05,0.15-0.08,0.22l-0.25,0.69c-2.25,6.12-1.75,13.01,1.41,18.81
		c3.16,5.8,8.67,9.95,15.11,11.4l39.21,8.83c27.79,6.25,56.63-6.42,70.13-30.82c1.6-2.88,4.13-9.01,4.13-9.02
		c2.15-5.8,3.43-11.86,3.85-18.07c-14.74-2.75-25.94-15.71-25.94-31.24c0-2.21,1.79-4,4-4s4,1.79,4,4
		c0,13.11,10.67,23.78,23.78,23.78c0.37,0,0.73,0,1.1-0.02c7.32-0.33,13.66-4.22,17.39-10.67c3.83-6.6,4.03-14.57,0.54-21.32
		c-8.14-15.76-7.87-34.44,0.72-49.97c1.07-1.93,3.5-2.63,5.44-1.56c1.93,1.07,2.63,3.5,1.56,5.43c-7.3,13.19-7.52,29.05-0.61,42.43
		c1.93,3.74,3.03,7.76,3.3,11.82c0.4,5.89-0.95,11.86-4.02,17.18c-4.93,8.52-13.59,13.93-23.27,14.6
		c-0.41,6.14-1.58,12.17-3.5,17.98c14.83,15,32.5,26.1,51.83,32.79c14.08,4.86,29.05,7.4,44.46,7.4h0.23
		c13.65-0.02,26.82-6.67,35.21-17.79c17.83-23.63,27.26-51.82,27.26-81.52C360.469,315.831,340.049,275.441,305.629,249.911z
		 M104.949,348.431c-0.74,0.67-1.7,1.02-2.66,1.02c-0.54,0-1.08-0.11-1.6-0.33l-14.06-6.12c-1.93-0.84-2.88-3.03-2.17-5.01
		l6.56-18.34c0.58-1.62,2.11-2.68,3.86-2.65c1.72,0.04,3.23,1.18,3.73,2.83l7.5,24.44
		C106.569,345.771,106.119,347.391,104.949,348.431z M179.749,345.991c-5.09,5.42-12.2,8.34-20.19,8.34c-0.72,0-1.46-0.02-2.19-0.07
		c-8.59-0.56-17.06-4.39-23.84-10.76c-14.23-13.36-16.63-33.99-5.37-45.98c8.99-9.58,19.15-6.28,30.91-2.47
		c3.98,1.3,8.49,2.76,13.52,3.98c7.08,1.73,12.21,6.81,14.44,14.32C190.179,323.951,186.989,338.291,179.749,345.991z"/>
	<path d="M403.669,147.931c-4.15-2.12-8.89-2.5-13.33-1.06c-4.44,1.43-8.05,4.51-10.18,8.67c-1,1.97-0.22,4.38,1.74,5.38
		c1.97,1.01,4.38,0.23,5.39-1.74c1.15-2.25,3.11-3.92,5.52-4.7c2.4-0.78,4.97-0.57,7.22,0.58c2.26,1.15,3.93,3.11,4.7,5.52
		c0.78,2.4,0.58,4.97-0.57,7.22c-1.95,3.82-5.27,6.64-9.34,7.96c-4.08,1.32-8.42,0.97-12.23-0.98l-34.28-17.52
		c5.72-1.71,10.18-5.27,12.7-10.2c2.31-4.53,2.71-9.81,1.22-15.01c5.09-1.84,9.14-5.26,11.45-9.79c2.31-4.52,2.71-9.8,1.23-15.01
		c5.09-1.84,9.13-5.26,11.45-9.78c1.4-2.75,2.1-5.77,2.1-8.89c0-2.02-0.29-4.07-0.88-6.12c5.09-1.84,9.14-5.26,11.45-9.79
		c2.86-5.6,2.83-12.18-0.08-18.54c-0.93-2.04-2.14-3.96-3.56-5.76c0.43-0.11,0.86-0.22,1.29-0.36c5.23-1.69,9.49-5.32,11.99-10.22
		c4.64-9.07-0.84-30.61-1.98-34.84c-0.3-1.08-1.04-2-2.04-2.51c-1-0.52-2.18-0.58-3.23-0.18c-4.1,1.54-24.77,9.72-29.4,18.79
		c-2.81,5.5-2.9,11.68-0.78,17c-9.38-0.4-17.95,3.62-21.85,11.25c-2.31,4.52-2.71,9.81-1.23,15.01c-5.08,1.84-9.13,5.26-11.44,9.78
		c-2.32,4.53-2.72,9.81-1.23,15.01c-5.09,1.85-9.14,5.27-11.45,9.79c-2.31,4.52-2.71,9.81-1.23,15.01
		c-5.08,1.84-9.13,5.26-11.44,9.78c-2.52,4.94-2.8,10.63-0.84,16.27l-34.64-17.71c-5.72-2.92-12.23-3.44-18.33-1.47
		c-6.11,1.98-11.08,6.21-14,11.93c-2.13,4.16-2.51,8.89-1.07,13.33c1.44,4.44,4.52,8.06,8.67,10.18c2.5,1.28,5.21,1.93,7.94,1.93
		c1.8,0,3.62-0.29,5.39-0.86c4.44-1.44,8.06-4.52,10.18-8.67c1.01-1.97,0.23-4.38-1.74-5.39c-1.97-1-4.38-0.22-5.38,1.74
		c-1.15,2.26-3.11,3.93-5.52,4.71c-2.41,0.78-4.97,0.57-7.23-0.58c-2.25-1.15-3.92-3.11-4.7-5.52c-0.78-2.41-0.57-4.98,0.58-7.23
		c1.95-3.81,5.26-6.64,9.34-7.95c4.07-1.32,8.42-0.98,12.23,0.97l31.74,16.23c-14.5,22.1-27.61,46.75-40.81,76.89
		c-12.38-3.41-25.2-5.16-38.17-5.16c-7.89,0-15.8,0.65-23.5,1.92c-0.04,0-0.07,0.01-0.11,0.01c-42.55,7.05-79.32,32.62-100.88,70.18
		c-3.25,5.64-7.75,10.27-13.01,13.39c-1.78,1.05-6.13,2.38-8.45,2.96c-1.24,0.31-2.26,1.2-2.74,2.38c-0.13,0.33-3.3,8.21-5.5,17.81
		c-3.1,13.54-2.68,23.58,1.25,29.78c0.02,0.04,0.05,0.07,0.07,0.11c1.56,2.42,1.94,5.4,1.04,8.16l-17.28,52.85l-0.23,0.63
		c-3.08,8.37-2.39,17.66,1.87,25.48s11.68,13.42,20.37,15.37l39.21,8.83c5.33,1.2,10.68,1.78,15.98,1.78
		c25.81,0,50.29-13.72,62.91-36.52c0.8-1.45,1.56-2.93,2.26-4.44c26.85,25.91,61.95,40.1,99.5,40.1h0.24
		c16.14-0.02,31.69-7.86,41.58-20.97c18.89-25.03,28.88-54.89,28.88-86.34c0-45.78-21.89-88.77-58.74-115.78
		c2.82-4.81,5.52-9.51,8.08-14.13c0.57-1.02,0.66-2.24,0.25-3.33l-3.88-10.5l6.09,2.13c1.88,0.65,3.95-0.17,4.86-1.93
		c8.97-17.18,16.32-33.38,22.43-49.39l31.39,16.04c11.79,6.03,26.3,1.34,32.33-10.45
		C415.669,162.871,412.249,152.321,403.669,147.931z M379.139,22.701c2.04-3.99,12.34-9.59,20.91-13.26
		c2.04,9.09,3.54,20.73,1.5,24.71c-0.77,1.5-1.8,2.8-3.04,3.86c-1.24,1.06-2.69,1.87-4.29,2.39c-3.2,1.03-6.61,0.76-9.6-0.77
		C378.439,36.471,375.979,28.871,379.139,22.701z M356.509,50.941c2.32-4.54,7.44-6.98,13.33-6.98c3.58,0,7.44,0.91,11.13,2.79
		c4.89,2.5,8.69,6.3,10.71,10.71c1.87,4.09,1.95,8.2,0.23,11.57c-1.84,3.6-5.5,5.99-10.31,6.73c-1.27,0.2-2.36,0.99-2.95,2.13
		c-0.58,1.15-0.58,2.5,0,3.64c2.21,4.33,2.42,8.7,0.58,12.3c-1.43,2.79-3.97,4.85-7.28,5.98c0,0-15.26-37.41-15.44-37.82
		C354.859,58.081,354.849,54.191,356.509,50.941z M343.839,75.741c1.43-2.8,3.97-4.86,7.28-5.99c0,0,14.8,36.47,14.86,36.58
		c2.21,4.33,2.42,8.69,0.58,12.29c-1.43,2.79-3.95,4.84-7.25,5.97l-14.72-36.29l-0.06,0.02c-0.04-0.09-0.06-0.2-0.11-0.29
		C342.209,83.701,341.999,79.331,343.839,75.741z M311.159,147.261l10.88,5.56l-57.05,112.12c-2.22-3.22-4.93-6.07-8.05-8.47
		C274.929,210.591,291.789,176.621,311.159,147.261z M72.659,392.601l2.72-7.87l8.39,2.69l-2.78,8.05
		c-0.38,1.11-1.18,2.01-2.23,2.53c-1.06,0.51-2.26,0.58-3.37,0.2c-1.11-0.38-2.01-1.18-2.53-2.24
		C72.349,394.901,72.279,393.711,72.659,392.601z M159.269,387.131l-2.29,9.77c-3.02,0.16-6.04,0.16-9.05-0.02l2.76-11.77
		c0.48-2.02,2.3-3.4,4.29-3.4c0.34,0,0.68,0.04,1.01,0.12C158.359,382.391,159.829,384.761,159.269,387.131z M152.679,405.021
		c0.8,0,1.6-0.01,2.4-0.03l-1.85,7.87c-0.27,1.15-0.97,2.12-1.97,2.74c-1.01,0.62-2.19,0.81-3.33,0.54
		c-1.15-0.27-2.12-0.97-2.74-1.97s-0.81-2.18-0.54-3.33l1.42-6.07C148.269,404.941,150.479,405.021,152.679,405.021z
		 M139.259,387.131l-1.98,8.43c-2.89-0.55-5.74-1.26-8.56-2.12l1.96-8.33c0.48-2.03,2.29-3.4,4.29-3.4c0.33,0,0.67,0.04,1.01,0.12
		C138.339,382.391,139.809,384.761,139.259,387.131z M135.439,403.361l-2.23,9.5c-0.56,2.37-2.93,3.84-5.3,3.28
		c-2.36-0.55-3.84-2.93-3.28-5.3l2.26-9.61C129.709,402.081,132.559,402.801,135.439,403.361z M121.599,381.801l-2.51,8.56
		l-8.39-2.69l2.44-8.34c0.33-1.13,1.08-2.07,2.11-2.63c0.66-0.36,1.38-0.55,2.11-0.55c0.42,0,0.83,0.06,1.24,0.18
		c1.13,0.33,2.07,1.08,2.63,2.12C121.799,379.481,121.929,380.671,121.599,381.801z M116.849,398.051l-2.67,9.12
		c-0.68,2.33-3.13,3.68-5.46,2.99c-2.34-0.68-3.68-3.13-3-5.46l2.73-9.35L116.849,398.051z M105.609,376.381l-2.96,8.7l-8.39-2.69
		l3.01-8.85c0.62-1.83,2.34-2.99,4.18-2.99c0.47,0,0.94,0.08,1.41,0.24C105.159,371.571,106.399,374.081,105.609,376.381z
		 M100.079,392.661l-2.98,8.75c-0.78,2.3-3.29,3.53-5.59,2.75c-2.3-0.78-3.54-3.29-2.76-5.59l2.93-8.61L100.079,392.661z
		 M89.619,370.491l-3.24,9.37l-8.39-2.7l3.3-9.55c0.62-1.82,2.34-2.97,4.17-2.97c0.47,0,0.95,0.08,1.43,0.24
		c1.11,0.38,2.01,1.18,2.52,2.24C89.929,368.181,89.999,369.371,89.619,370.491z M360.469,358.791c0,29.7-9.43,57.89-27.26,81.52
		c-8.39,11.12-21.56,17.77-35.21,17.79h-0.23c-36.56,0-70.66-14.26-96.29-40.19c1.92-5.81,3.09-11.84,3.5-17.98
		c9.68-0.67,18.34-6.08,23.27-14.6c5.19-8.98,5.46-19.82,0.72-29c-6.91-13.38-6.69-29.24,0.61-42.43c1.07-1.93,0.37-4.36-1.56-5.43
		c-1.94-1.07-4.37-0.37-5.44,1.56c-8.59,15.53-8.86,34.21-0.72,49.97c3.49,6.75,3.29,14.72-0.54,21.32
		c-3.73,6.45-10.07,10.34-17.39,10.67c-0.37,0.02-0.73,0.02-1.1,0.02c-13.11,0-23.78-10.67-23.78-23.78c0-2.21-1.79-4-4-4
		s-4,1.79-4,4c0,15.53,11.2,28.49,25.94,31.24c-0.42,6.21-1.7,12.27-3.85,18.07c0,0.01-2.53,6.14-4.13,9.02
		c-0.2,0.36-0.4,0.71-0.61,1.06c-13.73,23.71-42.14,35.92-69.52,29.76l-39.21-8.83c-6.44-1.45-11.95-5.6-15.11-11.4
		c-3.16-5.8-3.66-12.69-1.41-18.81l0.25-0.69c0.03-0.07,0.06-0.14,0.08-0.22l4.74-14.48c1.28,1.25,2.82,2.21,4.56,2.81
		c1.33,0.46,2.69,0.69,4.06,0.69c1.68,0,3.35-0.37,4.93-1.06c1.4,2.88,3.9,5.23,7.16,6.34c1.32,0.45,2.66,0.66,3.99,0.66
		c2.01,0,3.97-0.5,5.72-1.4c1.43,3.21,4.2,5.79,7.83,6.85c1.16,0.34,2.33,0.5,3.48,0.5c2.64,0,5.18-0.85,7.27-2.36
		c0.3,0.83,0.68,1.64,1.15,2.41c1.75,2.81,4.48,4.78,7.71,5.54c0.95,0.22,1.9,0.33,2.84,0.33c3.98,0,7.7-1.94,10.01-5.09
		c1.74,2.39,4.25,4.08,7.17,4.76c0.95,0.22,1.91,0.33,2.86,0.33c2.28,0,4.52-0.63,6.51-1.86c2.82-1.74,4.78-4.48,5.54-7.71l1.37-5.8
		l1.06-4.52c2.41-0.29,4.82-0.67,7.21-1.16c2.17-0.44,3.56-2.56,3.12-4.72c-0.44-2.17-2.56-3.56-4.72-3.12
		c-1.21,0.25-2.43,0.46-3.65,0.65l1.66-7.06c1.57-6.66-2.58-13.35-9.24-14.92c-4.99-1.17-10,0.86-12.85,4.76
		c-1.69-2.31-4.17-4.05-7.16-4.76c-3.24-0.76-6.49-0.16-9.15,1.42c-1.44-3.19-4.2-5.75-7.81-6.81c-2.83-0.82-5.78-0.62-8.44,0.54
		c-1.43-2.71-3.85-4.91-6.97-5.97c-3.01-1.03-6.14-0.81-8.86,0.35c-1.45-2.96-3.97-5.18-7.08-6.25c-1.32-0.46-2.67-0.67-4-0.67
		c-1.35,0-2.68,0.22-3.94,0.64c-0.27-2.71-1.16-5.36-2.67-7.72c-0.01-0.02-0.03-0.06-0.04-0.07c-5.34-8.43,0.67-29.15,4.18-38.51
		c2.37-0.68,6.23-1.9,8.56-3.29c6.44-3.81,11.93-9.44,15.87-16.29c20.34-35.43,55.02-59.57,95.14-66.25c0.04,0,0.08-0.01,0.12-0.01
		c7.3-1.22,14.8-1.83,22.29-1.83c11.88,0,23.61,1.54,34.97,4.57c-1.29,3-2.57,6.04-3.85,9.16c-8.15-2.2-16.84-0.45-25.23,5.13
		c-6.45,4.29-10.49,9.36-10.66,9.58c-1.09,1.38-1.15,3.31-0.14,4.76s2.84,2.07,4.52,1.52c7.58-2.46,15.66-1.82,22.76,1.81
		c7.1,3.62,12.37,9.79,14.83,17.37c3.11,9.62,9.79,17.44,18.79,22.04c5.41,2.75,11.26,4.15,17.16,4.15c3.93,0,7.87-0.62,11.72-1.87
		c1.65-0.53,2.77-2.08,2.76-3.82s-1.14-3.28-2.8-3.8c-0.17-0.05-15.73-5.05-21.39-16.54c6.3-9.73,11.97-18.8,17.18-27.47
		C340.049,275.441,360.469,315.831,360.469,358.791z M253.069,244.551c-1.02,2.53-2.04,5.08-3.06,7.69
		c-4.55-2.16-9.39-3.38-14.29-3.63C240.419,245.571,246.529,243.161,253.069,244.551z M280.489,289.531c1.05-1.58,2.08-3.15,3.1-4.7
		c3.04,4.36,7.03,7.76,10.87,10.32C289.389,294.501,284.579,292.541,280.489,289.531z M319.629,208.481l-10.84-3.77
		c-1.46-0.51-3.08-0.13-4.17,0.98c-0.28,0.28-0.51,0.61-0.69,0.95c-0.51,0.99-0.6,2.16-0.2,3.24l6.19,16.72
		c-9.63,17.23-20.93,35.57-35.27,57.26c-2.07-2.66-3.73-5.71-4.83-9.11c-0.11-0.33-0.23-0.65-0.35-0.98l34.22-67.25l25.47-50.06
		l11.25,5.75C334.709,177.231,327.879,192.431,319.629,208.481z M344.369,150.011c-4.76,0.94-10.07,0.09-14.95-2.41
		c-4.88-2.49-8.68-6.29-10.7-10.7c-1.87-4.09-1.95-8.2-0.23-11.58c1.84-3.59,5.5-5.98,10.3-6.72c1.27-0.2,2.37-0.99,2.96-2.14
		c0.58-1.14,0.58-2.49,0-3.64c-2.22-4.33-2.42-8.69-0.58-12.29c1.43-2.81,3.98-4.86,7.31-5.99c0,0,14.71,36.37,14.82,36.58
		c2.22,4.33,2.42,8.7,0.58,12.3C352.159,146.791,348.779,149.131,344.369,150.011z"/>
	<linearGradient id="SVGID_2_" gradientUnits="userSpaceOnUse" x1="386.4381" y1="16.3425" x2="398.9418" y2="37.9995">
		<stop  offset="0" style="stop-color:#F7931E"/>
		<stop  offset="1" style="stop-color:#56330A"/>
	</linearGradient>
	<path style="fill:url(#SVGID_2_);" d="M400.049,9.441c2.04,9.09,3.54,20.73,1.5,24.71c-0.77,1.5-1.8,2.8-3.04,3.86
		c-1.24,1.06-2.69,1.87-4.29,2.39c-3.2,1.03-6.61,0.76-9.6-0.77c-6.18-3.16-8.64-10.76-5.48-16.93
		C381.179,18.711,391.479,13.111,400.049,9.441z"/>
	<linearGradient id="SVGID_3_" gradientUnits="userSpaceOnUse" x1="355.2676" y1="71.8858" x2="393.1426" y2="71.8858">
		<stop  offset="0" style="stop-color:#ED1C24"/>
		<stop  offset="1" style="stop-color:#000000"/>
	</linearGradient>
	<path style="fill:url(#SVGID_3_);" d="M391.679,57.461c1.87,4.09,1.95,8.2,0.23,11.57c-1.84,3.6-5.5,5.99-10.31,6.73
		c-1.27,0.2-2.36,0.99-2.95,2.13c-0.58,1.15-0.58,2.5,0,3.64c2.21,4.33,2.42,8.7,0.58,12.3c-1.43,2.79-3.97,4.85-7.28,5.98
		c0,0-15.26-37.41-15.44-37.82c-1.65-3.91-1.66-7.8,0-11.05c2.32-4.54,7.44-6.98,13.33-6.98c3.58,0,7.44,0.91,11.13,2.79
		C385.859,49.251,389.659,53.051,391.679,57.461z"/>
	<linearGradient id="SVGID_4_" gradientUnits="userSpaceOnUse" x1="342.5956" y1="97.1708" x2="367.802" y2="97.1708">
		<stop  offset="0" style="stop-color:#F7931E"/>
		<stop  offset="1" style="stop-color:#56330A"/>
	</linearGradient>
	<path style="fill:url(#SVGID_4_);" d="M365.979,106.331c2.21,4.33,2.42,8.69,0.58,12.29c-1.43,2.79-3.95,4.84-7.25,5.97
		l-14.72-36.29l-0.06,0.02c-0.04-0.09-0.06-0.2-0.11-0.29c-2.21-4.33-2.42-8.7-0.58-12.29c1.43-2.8,3.97-4.86,7.28-5.99
		C351.119,69.751,365.919,106.221,365.979,106.331z"/>
	<linearGradient id="SVGID_5_" gradientUnits="userSpaceOnUse" x1="336.1902" y1="150.3836" x2="336.1902" y2="94.5408">
		<stop  offset="0" style="stop-color:#ED1C24"/>
		<stop  offset="1" style="stop-color:#000000"/>
	</linearGradient>
	<path style="fill:url(#SVGID_5_);" d="M353.299,131.121c2.22,4.33,2.42,8.7,0.58,12.3c-1.72,3.37-5.1,5.71-9.51,6.59
		c-4.76,0.94-10.07,0.09-14.95-2.41c-4.88-2.49-8.68-6.29-10.7-10.7c-1.87-4.09-1.95-8.2-0.23-11.58c1.84-3.59,5.5-5.98,10.3-6.72
		c1.27-0.2,2.37-0.99,2.96-2.14c0.58-1.14,0.58-2.49,0-3.64c-2.22-4.33-2.42-8.69-0.58-12.29c1.43-2.81,3.98-4.86,7.31-5.99
		C338.479,94.541,353.189,130.911,353.299,131.121z"/>
	<linearGradient id="SVGID_6_" gradientUnits="userSpaceOnUse" x1="315.6553" y1="180.8219" x2="330.423" y2="189.0077">
		<stop  offset="0" style="stop-color:#333333"/>
		<stop  offset="0.3271" style="stop-color:#24465D;stop-opacity:0.674"/>
		<stop  offset="1" style="stop-color:#0071BC;stop-opacity:0.0034"/>
	</linearGradient>
	<path style="fill:url(#SVGID_6_);" d="M329.159,156.461l11.25,5.75c-5.7,15.02-12.53,30.22-20.78,46.27l-10.84-3.77
		c-1.46-0.51-3.08-0.13-4.17,0.98c-0.28,0.28-0.51,0.61-0.69,0.95l-0.24-0.12L329.159,156.461z"/>
	<linearGradient id="SVGID_7_" gradientUnits="userSpaceOnUse" x1="296.3948" y1="210.5442" x2="279.4343" y2="200.752">
		<stop  offset="0" style="stop-color:#333333"/>
		<stop  offset="0.3271" style="stop-color:#24465D;stop-opacity:0.674"/>
		<stop  offset="1" style="stop-color:#0071BC;stop-opacity:0.0034"/>
	</linearGradient>
	<path style="fill:url(#SVGID_7_);" d="M322.039,152.821l-57.05,112.12c-2.22-3.22-4.93-6.07-8.05-8.47
		c17.99-45.88,34.85-79.85,54.22-109.21L322.039,152.821z"/>
	<linearGradient id="SVGID_8_" gradientUnits="userSpaceOnUse" x1="283.8818" y1="242.2537" x2="297.1619" y2="249.615">
		<stop  offset="0" style="stop-color:#333333"/>
		<stop  offset="0.3271" style="stop-color:#24465D;stop-opacity:0.674"/>
		<stop  offset="1" style="stop-color:#0071BC;stop-opacity:0.0034"/>
	</linearGradient>
	<path style="fill:url(#SVGID_8_);" d="M303.729,209.881l6.19,16.72c-9.63,17.23-20.93,35.57-35.27,57.26
		c-2.07-2.66-3.73-5.71-4.83-9.11c-0.11-0.33-0.23-0.65-0.35-0.98l34.22-67.25l0.24,0.12
		C303.419,207.631,303.329,208.801,303.729,209.881z"/>
	<linearGradient id="SVGID_9_" gradientUnits="userSpaceOnUse" x1="280.4889" y1="289.9908" x2="294.4588" y2="289.9908">
		<stop  offset="0" style="stop-color:#ED1C24"/>
		<stop  offset="1" style="stop-color:#000000"/>
	</linearGradient>
	<path style="fill:url(#SVGID_9_);" d="M283.589,284.831c3.04,4.36,7.03,7.76,10.87,10.32c-5.07-0.65-9.88-2.61-13.97-5.62
		C281.539,287.951,282.569,286.381,283.589,284.831z"/>
	<linearGradient id="SVGID_10_" gradientUnits="userSpaceOnUse" x1="235.7188" y1="248.1942" x2="253.0688" y2="248.1942">
		<stop  offset="0" style="stop-color:#ED1C24"/>
		<stop  offset="1" style="stop-color:#000000"/>
	</linearGradient>
	<path style="fill:url(#SVGID_10_);" d="M253.069,244.551c-1.02,2.53-2.04,5.08-3.06,7.69c-4.55-2.16-9.39-3.38-14.29-3.63
		C240.419,245.571,246.529,243.161,253.069,244.551z"/>
	<path d="M187.029,313.351c-2.23-7.51-7.36-12.59-14.44-14.32c-5.03-1.22-9.54-2.68-13.52-3.98c-11.76-3.81-21.92-7.11-30.91,2.47
		c-1.4,1.49-2.59,3.11-3.55,4.84c-6.93,12.16-3.54,29.44,8.92,41.14c6.78,6.37,15.25,10.2,23.84,10.76
		c0.73,0.05,1.47,0.07,2.19,0.07c7.99,0,15.1-2.92,20.19-8.34c4.1-4.36,6.9-10.84,7.98-17.57
		C188.569,323.251,188.399,317.951,187.029,313.351z M173.919,340.511c-3.89,4.14-9.58,6.19-16.03,5.77
		c-6.74-0.45-13.45-3.5-18.89-8.61c-11-10.34-13.25-25.9-5.01-34.68c0.98-1.05,1.96-1.85,2.98-2.44c1.58-0.92,3.26-1.33,5.21-1.33
		c1.62,0,3.43,0.28,5.53,0.79c2.5,0.6,5.41,1.52,8.9,2.65c4.11,1.34,8.77,2.85,14.09,4.15c4.32,1.05,7.24,4.02,8.66,8.82
		C181.739,323.631,179.299,334.791,173.919,340.511z"/>
	<linearGradient id="SVGID_11_" gradientUnits="userSpaceOnUse" x1="180.2708" y1="322.7777" x2="129.0235" y2="322.7777">
		<stop  offset="0" style="stop-color:#ED1C24"/>
		<stop  offset="1" style="stop-color:#000000"/>
	</linearGradient>
	<path style="fill:url(#SVGID_11_);" d="M179.359,315.631c2.38,8-0.06,19.16-5.44,24.88c-3.89,4.14-9.58,6.19-16.03,5.77
		c-6.74-0.45-13.45-3.5-18.89-8.61c-11-10.34-13.25-25.9-5.01-34.68c2.51-2.67,4.99-3.77,8.19-3.77c3.56,0,8.02,1.37,14.43,3.44
		c4.11,1.34,8.77,2.85,14.09,4.15C175.019,307.861,177.939,310.831,179.359,315.631z"/>
	<linearGradient id="SVGID_12_" gradientUnits="userSpaceOnUse" x1="200.8554" y1="413.475" x2="262.5564" y2="404.8035">
		<stop  offset="0.132" style="stop-color:#333333"/>
		<stop  offset="0.2063" style="stop-color:#314D58;stop-opacity:0.8918"/>
		<stop  offset="0.3034" style="stop-color:#2E6982;stop-opacity:0.7504"/>
		<stop  offset="0.4027" style="stop-color:#2C81A5;stop-opacity:0.6058"/>
		<stop  offset="0.503" style="stop-color:#2B93C0;stop-opacity:0.4597"/>
		<stop  offset="0.6047" style="stop-color:#2AA1D3;stop-opacity:0.3116"/>
		<stop  offset="0.7087" style="stop-color:#29A8DE;stop-opacity:0.16"/>
		<stop  offset="0.8186" style="stop-color:#29ABE2;stop-opacity:0"/>
	</linearGradient>
	<path style="fill:url(#SVGID_12_);" d="M253.309,450.701c-19.33-6.69-37-17.79-51.83-32.79c1.92-5.81,3.09-11.84,3.5-17.98
		c9.68-0.67,18.34-6.08,23.27-14.6c3.07-5.32,4.42-11.29,4.02-17.18c5.92-1.55,11.71-3.57,17.23-6.11c0.02,0.01,0.03,0.02,0.05,0.03
		c2.5,1.7,4.92,3.52,7.24,5.46C264.389,403.251,262.849,443.091,253.309,450.701z"/>
	<linearGradient id="SVGID_13_" gradientUnits="userSpaceOnUse" x1="61.762" y1="430.9575" x2="188.3989" y2="430.9575">
		<stop  offset="0" style="stop-color:#333333"/>
		<stop  offset="0.109" style="stop-color:#314D59;stop-opacity:0.8913"/>
		<stop  offset="0.25" style="stop-color:#2E6982;stop-opacity:0.7509"/>
		<stop  offset="0.3942" style="stop-color:#2C81A5;stop-opacity:0.6072"/>
		<stop  offset="0.54" style="stop-color:#2B94C0;stop-opacity:0.4619"/>
		<stop  offset="0.688" style="stop-color:#2AA1D3;stop-opacity:0.3144"/>
		<stop  offset="0.8395" style="stop-color:#29A8DE;stop-opacity:0.1634"/>
		<stop  offset="1" style="stop-color:#29ABE2;stop-opacity:0.0034"/>
	</linearGradient>
	<path style="fill:url(#SVGID_13_);" d="M188.399,427.621c-13.73,23.71-42.14,35.92-69.52,29.76l-39.21-8.83
		c-6.44-1.45-11.95-5.6-15.11-11.4c-3.16-5.8-3.66-12.69-1.41-18.81l0.25-0.69c0.03-0.07,0.06-0.14,0.08-0.22l4.74-14.48
		c1.28,1.25,2.82,2.21,4.56,2.81c1.33,0.46,2.69,0.69,4.06,0.69c1.68,0,3.35-0.37,4.93-1.06c1.4,2.88,3.9,5.23,7.16,6.34
		c1.32,0.45,2.66,0.66,3.99,0.66c2.01,0,3.97-0.5,5.72-1.4c1.43,3.21,4.2,5.79,7.83,6.85c1.16,0.34,2.33,0.5,3.48,0.5
		c2.64,0,5.18-0.85,7.27-2.36c0.3,0.83,0.68,1.64,1.15,2.41c1.75,2.81,4.48,4.78,7.71,5.54c0.95,0.22,1.9,0.33,2.84,0.33
		c3.98,0,7.7-1.94,10.01-5.09c1.74,2.39,4.25,4.08,7.17,4.76c0.95,0.22,1.91,0.33,2.86,0.33c2.28,0,4.52-0.63,6.51-1.86
		c2.82-1.74,4.78-4.48,5.54-7.71l1.37-5.8C167.699,410.151,182.759,414.781,188.399,427.621z"/>
	<path d="M106.109,344.271l-7.5-24.44c-0.5-1.65-2.01-2.79-3.73-2.83c-1.75-0.03-3.28,1.03-3.86,2.65l-6.56,18.34
		c-0.71,1.98,0.24,4.17,2.17,5.01l14.06,6.12c0.52,0.22,1.06,0.33,1.6,0.33c0.96,0,1.92-0.35,2.66-1.02
		C106.119,347.391,106.569,345.771,106.109,344.271z"/>
</g>
</svg>